# xmcd
#
# Track frame offsets: 
#        150
#        33665
#        53047
#        112101
#        137334
#        164702
#        195835
#        255804
#        285503
#
# Disc length: 4237 seconds
#
# Revision: 2
# Processed by: cddbd v1.5.2PL0 Copyright (c) Steve Scherf et al.
# Submitted via: ExactAudioCopyFreeDBPlugin 1.0
#
DISCID=74108b09
DTITLE=Various Artist - JazzPiano History CD17 - Funk-Fusion-Free-JazzRock
DYEAR=1900
DGENRE=Jazz
TTITLE0=Horace Silver Quintet - Creepin' In
TTITLE1=Horace Silver Quintet - The Preacher
TTITLE2=Horace Silver Quintet - Senor Blues
TTITLE3=Bobby Timmons, Chet Baker and His Crew - Lucious
TTITLE4=Cedar Walton and Eddie Harris Quartet - St. Thomas
TTITLE5=Gene Harris and Ray Brown Trio - Night Train
TTITLE6=Ramsey Lewis Quintet - Blues For The NIGHT
TTITLE7=Junior Mance Trio - Blue Monk
TTITLE8=Les McCann Magic Band - Compared To What
EXTD=
EXTT0=
EXTT1=
EXTT2=
EXTT3=
EXTT4=
EXTT5=
EXTT6=
EXTT7=
EXTT8=
PLAYORDER=
